:SAMPLES-PER-SECOND 30
:FULLY-SPECIFIED
:DEGREES
727
root  -62.9066 39.9516 -5.1369 22.4123 81.6396 23.7386
RightUpLeg  -20.0335 -1.57209 -8.45548
RightLeg  50.5996 2.37297 2.7465
RightFoot  -2.71905 -0.606575 7.79198
RightToes  9.54606e-009 0 -3.6325e-017
Spine  6.20887 0.176443 -4.20009
Spine1  3.86419 -0.0996233 -1.61337
HEad  -25.202 2.47023 -1.56171
LeftShoulder1  -0.622729 5.0596 -33.863
LeftArm  11.2029 -6.5294 -42.1651
LeftForeArm  21.9557 -13.7007 -9.33944
LeftHand  -0.0474882 8.85477 0.0314956
RightShoulder  -1.04128 -6.34385 30.1138
RightArm  15.691 -11.5138 44.7873
RightForeArm  20.1527 9.10311 7.28054
RightHand  -0.0769625 4.93195 -1.15845
LeftUpLeg  -1.86368 6.28519 -2.87358
LeftLeg  14.2828 4.00186 0.239884
LeftFoot  -10.3676 0.0458091 1.94286
LeftToes  -8.26734e-010 9.74065e-011 1.64617e-011
728
root  -62.2053 40.0038 -5.13676 17.6017 81.7265 18.5551
RightUpLeg  -21.0624 -2.24349 -8.05998
RightLeg  42.2457 2.18568 1.84802
RightFoot  -3.03035 -0.572871 7.59119
RightToes  9.54606e-009 0 -3.6325e-017
Spine  6.48082 -0.230382 -3.82655
Spine1  3.50201 -0.634776 -0.449276
HEad  -25.1098 3.26915 -1.6615
LeftShoulder1  -0.605054 5.02714 -33.5601
LeftArm  12.8739 -7.47273 -42.9756
LeftForeArm  19.2815 -15.4259 -8.37413
LeftHand  -0.0521237 8.24229 -0.264029
RightShoulder  -0.989649 -6.24015 29.6125
RightArm  15.0921 -13.4493 43.6002
RightForeArm  18.3436 9.59553 6.894
RightHand  -0.166152 5.55097 -2.08561
LeftUpLeg  -0.564295 6.57342 -2.13659
LeftLeg  13.3685 3.70778 0.156544
LeftFoot  -10.9865 0.0598356 1.9822
LeftToes  -8.26734e-010 9.74065e-011 1.64617e-011
729
root  -61.4689 40.0357 -5.11437 13.2441 81.7742 13.7572
RightUpLeg  -21.0813 -2.69255 -7.6571
RightLeg  31.7235 1.90864 1.05699
RightFoot  -2.62539 -0.576541 7.31933
RightToes  9.54606e-009 0 -3.6325e-017
Spine  6.33021 -0.569619 -3.35427
Spine1  3.70707 -1.06473 0.611281
HEad  -25.5851 2.93846 -2.09424
LeftShoulder1  -0.582669 4.9832 -33.231
LeftArm  14.5034 -8.76079 -43.7772
LeftForeArm  17.4259 -16.6958 -7.63485
LeftHand  -0.0471701 7.64405 -0.234343
RightShoulder  -0.996788 -6.25846 29.6315
RightArm  14.2555 -14.3706 42.321
RightForeArm  17.935 9.58283 6.51156
RightHand  -0.102775 5.39907 -1.42357
LeftUpLeg  0.676286 6.90623 -1.39809
LeftLeg  12.5234 3.45979 0.0364748
LeftFoot  -11.7011 0.0769033 2.04172
LeftToes  -8.26734e-010 9.74065e-011 1.64617e-011
730
root  -60.68 40.0189 -5.01847 11.2178 81.7515 11.0441
RightUpLeg  -20.8347 -2.75932 -7.39689
RightLeg  20.7859 2.167 0.640963
RightFoot  -2.22395 -0.603455 7.37383
RightToes  9.54606e-009 0 -3.6325e-017
Spine  6.01772 -0.821461 -3.19818
Spine1  3.6614 -1.41071 1.5671
HEad  -25.2856 4.35532 -1.46397
LeftShoulder1  -0.579732 4.98857 -32.898
LeftArm  17.7606 -9.39458 -44.2319
LeftForeArm  14.0028 -18.7394 -6.47083
LeftHand  -0.0615396 8.0005 -0.750188
RightShoulder  -0.978458 -6.2133 29.5508
RightArm  13.1114 -14.9846 41.4621
RightForeArm  18.1097 9.00744 6.17696
RightHand  -0.0512903 5.30412 -0.881277
LeftUpLeg  1.6628 7.04991 -0.9632
LeftLeg  11.797 3.3831 0.0360761
LeftFoot  -12.4588 0.0958071 2.15827
LeftToes  -8.26734e-010 9.74065e-011 1.64617e-011
731
root  -59.8425 39.9546 -4.87939 11.3477 81.6524 10.8169
RightUpLeg  -20.3239 -4.54169 -6.94584
RightLeg  11.4883 4.71934 0.625496
RightFoot  -1.8561 -0.664733 7.8283
RightToes  9.54606e-009 0 -3.6325e-017
Spine  6.01688 -0.882426 -3.12565
Spine1  3.62584 -1.55215 2.25633
HEad  -25.2622 3.78485 -1.58212
LeftShoulder1  -0.568877 4.96544 -32.7423
LeftArm  20.0237 -9.94781 -44.4956
LeftForeArm  12.2171 -20.1729 -5.65077
LeftHand  -0.0378696 7.48997 0.0259755
RightShoulder  -0.950795 -6.14178 29.4667
RightArm  12.0723 -15.6603 40.8539
RightForeArm  18.154 8.93247 5.75389
RightHand  -0.0882349 3.6516 -1.37853
LeftUpLeg  3.13279 7.10395 -0.7806
LeftLeg  10.9658 3.22528 -0.028375
LeftFoot  -13.2695 0.110702 1.86613
LeftToes  -8.26734e-010 9.74065e-011 1.64617e-011
732
root  -58.9581 39.841 -4.69145 12.0175 81.6208 11.2672
RightUpLeg  -20.0695 -7.16749 -5.99297
RightLeg  5.31163 8.06374 0.38794
RightFoot  -0.0261326 -0.899207 9.05374
RightToes  9.54606e-009 0 -3.6325e-017
Spine  5.7951 -0.823021 -2.80458
Spine1  4.04922 -1.49299 2.38457
HEad  -25.8847 3.87383 -1.57518
LeftShoulder1  -0.454479 4.68661 -32.2861
LeftArm  21.3828 -10.039 -44.99
LeftForeArm  10.781 -21.4931 -4.98757
LeftHand  -0.000658779 8.10308 1.66298
RightShoulder  -1.03236 -6.33754 29.8865
RightArm  10.9415 -15.3015 40.5259
RightForeArm  17.5386 7.89258 5.4361
RightHand  -0.131643 3.68564 -1.94745
LeftUpLeg  4.68332 7.29179 -0.525165
LeftLeg  10.502 3.07051 -0.109832
LeftFoot  -14.3538 0.124123 1.41228
LeftToes  -8.26734e-010 9.74065e-011 1.64617e-011
733
root  -58.0194 39.6547 -4.41068 12.3295 81.6021 11.8331
RightUpLeg  -19.5038 -7.40426 -5.61446
RightLeg  3.03432 8.09455 0.395083
RightFoot  0.523499 -1.08559 10.4099
RightToes  9.54606e-009 0 -3.6325e-017
Spine  6.15137 -0.777524 -2.65005
Spine1  4.39973 -1.52284 2.68471
HEad  -26.1329 3.74904 -1.74576
LeftShoulder1  -0.502593 4.80105 -32.597
LeftArm  21.2218 -10.1892 -44.7986
LeftForeArm  10.8156 -22.3074 -4.63376
LeftHand  -0.0334421 7.05808 0.349411
RightShoulder  -0.99952 -6.26044 29.7045
RightArm  9.95839 -14.8302 41.0637
RightForeArm  18.3202 7.24755 5.10153
RightHand  -0.0919018 4.11139 -1.39561
LeftUpLeg  6.56693 7.62314 -0.0336319
LeftLeg  10.6536 2.35173 -0.1546
LeftFoot  -15.7335 0.131761 1.01847
LeftToes  -8.26734e-010 9.74065e-011 1.64617e-011
734
root  -57.0445 39.4774 -4.07441 9.97488 81.9737 9.52379
RightUpLeg  -19.721 -7.04786 -4.73327
RightLeg  5.09722 7.62724 0.825839
RightFoot  2.13391 -0.924241 8.18585
RightToes  9.54606e-009 0 -3.6325e-017
Spine  6.14835 -0.891521 -1.57654
Spine1  4.96901 -1.62111 2.64616
HEad  -26.3653 3.29845 -1.93674
LeftShoulder1  -0.48839 4.76993 -32.4056
LeftArm  20.3588 -9.7138 -45.0326
LeftForeArm  10.7413 -22.3808 -4.62067
LeftHand  -0.0182729 7.65226 1.15342
RightShoulder  -1.00599 -6.27234 29.7798
RightArm  9.95174 -13.7061 41.7752
RightForeArm  17.9221 6.524 5.21895
RightHand  -0.147573 3.78829 -2.12246
LeftUpLeg  8.1873 7.70246 0.877246
LeftLeg  10.9956 1.7272 0.251715
LeftFoot  -17.2869 0.0862095 -0.355008
LeftToes  -8.26734e-010 9.74065e-011 1.64617e-011
735
root  -56.0282 39.3641 -3.70061 3.45894 82.5655 2.95409
RightUpLeg  -20.5233 -5.46793 -3.23728
RightLeg  9.2531 7.37064 0.882731
RightFoot  6.49271 -0.454087 3.08955
RightToes  9.54606e-009 0 -3.6325e-017
Spine  6.17369 -1.01941 0.150763
Spine1  5.40219 -1.8134 3.12147
HEad  -25.7815 3.5007 -1.92036
LeftShoulder1  -0.594384 5.01767 -33.1206
LeftArm  20.257 -8.87983 -44.4533
LeftForeArm  10.6326 -22.608 -4.56565
LeftHand  -0.0319634 7.48969 0.389307
RightShoulder  -0.977475 -6.21688 29.4643
RightArm  9.77396 -12.813 42.6988
RightForeArm  18.3035 6.61399 5.23496
RightHand  -0.0981027 3.86421 -1.49738
LeftUpLeg  9.84512 6.91729 2.18598
LeftLeg  11.1482 1.64103 0.957558
LeftFoot  -18.202 -0.0141047 -2.03951
LeftToes  -8.26734e-010 9.74065e-011 1.64617e-011
736
root  -54.9637 39.187 -3.27017 -5.77271 83.0939 -5.87834
RightUpLeg  -21.1779 -3.28603 -2.20114
RightLeg  14.8436 5.37187 1.07448
RightFoot  6.08292 -0.0577317 0.648846
RightToes  9.54606e-009 0 -3.6325e-017
Spine  7.01862 -1.04649 2.26565
Spine1  5.1217 -1.66332 2.88789
HEad  -25.697 2.50337 -2.61035
LeftShoulder1  -0.551046 4.89617 -33.4238
LeftArm  19.2511 -7.77251 -44.5289
LeftForeArm  12.0698 -21.538 -4.8631
LeftHand  -0.0383291 6.86545 -0.122101
RightShoulder  -1.07618 -6.44792 30.0196
RightArm  10.6249 -10.9241 42.9273
RightForeArm  17.6499 6.41858 5.66067
RightHand  -0.12255 4.58994 -1.70878
LeftUpLeg  10.5692 4.60043 3.59961
LeftLeg  14.3104 2.28076 1.49818
LeftFoot  -19.2711 -0.208101 -4.62754
LeftToes  -8.26734e-010 9.74065e-011 1.64617e-011
737
root  -53.9236 39.0132 -2.82326 -14.2188 83.0788 -13.9653
RightUpLeg  -21.3 -1.22897 -1.29875
RightLeg  19.6677 3.17916 1.05391
RightFoot  2.52609 -0.0262183 0.336785
RightToes  9.54606e-009 0 -3.6325e-017
Spine  7.46625 -1.07428 4.28461
Spine1  5.38031 -1.31122 2.251
HEad  -26.0265 2.5206 -2.48495
LeftShoulder1  -0.447065 4.63344 -33.4234
LeftArm  16.4925 -6.40376 -44.8885
LeftForeArm  13.9703 -19.6137 -5.77926
LeftHand  -0.0339309 8.0138 0.429022
RightShoulder  -1.09188 -6.4569 30.4388
RightArm  11.9001 -7.95166 43.7351
RightForeArm  17.5839 5.88591 6.34056
RightHand  -0.17684 4.99076 -2.28024
LeftUpLeg  9.7854 1.94499 4.95646
LeftLeg  20.3188 3.21533 1.57995
LeftFoot  -19.4849 -0.4883 -8.53323
LeftToes  -8.26734e-010 9.74065e-011 1.64617e-011
738
root  -52.9631 38.8952 -2.36127 -20.0248 83.8857 -19.9599
RightUpLeg  -21.5289 -1.25875 -0.449232
RightLeg  23.3579 2.30948 0.866841
RightFoot  -0.224929 0.10472 -1.09338
RightToes  9.54606e-009 0 -3.6325e-017
Spine  7.37308 -1.30965 4.9891
Spine1  5.61397 -1.44226 3.00482
HEad  -25.412 3.03087 -2.28802
LeftShoulder1  -0.381761 4.47416 -33.2025
LeftArm  12.7058 -4.91324 -45.0841
LeftForeArm  17.4862 -16.8776 -7.2944
LeftHand  -0.0474621 8.40471 -0.0361652
RightShoulder  -1.04796 -6.33697 30.4402
RightArm  13.3696 -4.59343 45.1763
RightForeArm  19.0026 5.17645 7.0939
RightHand  -0.163923 5.11877 -2.12357
LeftUpLeg  6.56895 0.42491 6.1272
LeftLeg  28.6523 1.96736 1.49087
LeftFoot  -17.1018 -0.540566 -13.3151
LeftToes  -8.26734e-010 9.74065e-011 1.64617e-011
739
root  -52.0415 38.8578 -1.93448 -32.9098 85.632 -32.8889
RightUpLeg  -20.771 -2.23881 0.269989
RightLeg  25.579 1.06772 0.325851
RightFoot  -2.80201 0.136579 -2.06071
RightToes  9.54606e-009 0 -3.6325e-017
Spine  7.36021 -1.82611 6.04672
Spine1  5.56603 -1.7376 3.3758
HEad  -24.4171 1.97307 -2.46637
LeftShoulder1  -0.362739 4.43058 -33.0021
LeftArm  10.0083 -3.85654 -45.1161
LeftForeArm  22.4838 -14.216 -8.75013
LeftHand  -0.0660096 8.78465 -0.588118
RightShoulder  -0.991079 -6.20302 30.1546
RightArm  13.7839 -2.31599 46.7113
RightForeArm  19.5774 5.98206 7.33532
RightHand  -0.11359 5.60024 -1.50948
LeftUpLeg  1.79643 -2.18749 6.98629
LeftLeg  38.2008 1.36918 1.56679
LeftFoot  -10.158 0.125543 -14.5182
LeftToes  -8.26734e-010 9.74065e-011 1.64617e-011
